# xmcd CD database file
#
# Track frame offsets:
#	150
#	12508
#	26901
#	44453
#	61738
#	74614
#	91906
#	132810
#
# Disc length: 1947 seconds
#
# Revision: 0
# Processed by: cddbd v1.5.1PL0 Copyright (c) Steve Scherf et al.
# Submitted via: CDex 1.51
#
DISCID=6b079908
DTITLE=BUGY CRAXONE - sorry, I will scream here
DYEAR=2004
DGENRE=Rock
TTITLE0=I'm sorry
TTITLE1=Why not?
TTITLE2=倒錯の森
TTITLE3=LUCKY
TTITLE4=Big mouth
TTITLE5=11月
TTITLE6=フラニーとゾーイ
TTITLE7=I scream
EXTD=YEAR: 2004
EXTT0=
EXTT1=
EXTT2=
EXTT3=
EXTT4=
EXTT5=
EXTT6=
EXTT7=
PLAYORDER=
